<svg width="3701" height="914" xmlns="http://www.w3.org/2000/svg" xmlns:xlink="http://www.w3.org/1999/xlink" overflow="hidden"><defs><clipPath id="clip0"><path d="M-603 224 3098 224 3098 1138-603 1138Z" fill-rule="evenodd" clip-rule="evenodd"/></clipPath></defs><g clip-path="url(#clip0)" transform="translate(603 -224)"><path d="M-602 528.339-601.894 830.783-582.654 842.278C-572.082 848.605-459.809 916.835-333.159 993.922-206.508 1070.9-102.482 1133.97-102.059 1133.97-101.636 1133.97-86.0952 1080.18-67.5945 1014.59-49.0938 948.893-30.4874 882.773-26.153 867.693-21.9243 852.613-17.5898 838.06-16.744 835.213L-15.0527 830.256 1540.48 830.256 3096.02 830.256 3096.02 528.128 3096.02 226 1247.01 226-602 226-602 528.339ZM1424.51 412.339 1424.41 436.382 1418.49 457.473 1412.46 478.564 1400.51 478.881 1388.57 479.197 1389.2 476.772C1389.52 475.401 1391.1 466.226 1392.9 456.419 1394.59 446.506 1396.07 437.859 1396.07 437.121 1396.07 436.277 1394.07 435.855 1389.73 435.855L1383.39 435.855 1383.39 412.128 1383.39 388.4 1404 388.4 1424.62 388.4 1424.51 412.339ZM-243.615 398.419C-239.281 399.368-232.092 401.371-227.758 402.742-223.423 404.219-215.071 407.699-209.257 410.546-203.442 413.393-195.514 417.717-191.496 420.248-187.585 422.673-184.413 425.204-184.413 425.731-184.413 426.259-188.536 434.168-193.611 443.237L-202.914 459.899-208.728 455.364C-211.9 452.939-217.609 449.248-221.414 447.244-225.22 445.135-232.409 441.971-237.484 440.179-242.452 438.491-250.17 436.277-254.61 435.433-259.367 434.379-267.825 433.746-275.542 433.746-282.731 433.746-291.717 434.484-295.523 435.222-299.435 436.066-304.932 437.964-307.786 439.441-310.746 440.917-314.447 443.237-316.244 444.713-317.935 446.084-320.684 449.775-322.375 452.939-325.018 457.684-325.547 460.004-325.864 468.019-326.181 476.772-325.97 477.932-323.221 483.31-321.318 487.106-318.464 490.481-314.975 493.117-312.015 495.226-305.883 498.495-301.232 500.288-296.58 502.081-284.634 505.666-274.802 508.303-264.865 510.833-251.016 514.63-243.932 516.634-236.849 518.637-226.912 521.906-221.837 523.91-216.869 525.914-209.363 529.499-205.24 531.924-201.117 534.35-194.668 539.517-190.862 543.314-186.316 547.848-182.616 552.805-180.396 557.444-178.493 561.346-176.167 567.779-175.427 571.681-174.581 575.583-173.841 583.808-173.841 589.925-173.841 597.623-174.476 603.634-175.956 609.223-177.119 613.652-179.762 620.717-181.982 624.936-184.307 629.259-188.748 635.27-192.342 638.961-195.831 642.547-201.434 647.187-204.711 649.296-208.094 651.405-214.331 654.568-218.666 656.256-222.894 657.943-230.401 660.368-235.264 661.528-240.127 662.688-250.381 664.165-257.993 664.797-268.353 665.747-275.331 665.747-285.374 664.797-292.88 664.165-303.663 662.688-309.583 661.423-315.504 660.263-325.23 657.627-331.361 655.623-337.387 653.619-346.796 649.823-352.082 647.187-357.368 644.656-366.037 639.699-371.429 636.114L-381.155 629.786-373.014 614.285C-368.469 605.848-364.134 597.623-363.183 596.041L-361.597 593.194-356.734 597.306C-354.091 599.521-347.959 603.634-343.202 606.586-338.339 609.539-329.458 613.757-323.644 616.077-317.724 618.397-307.892 621.561-301.76 623.143-292.669 625.463-287.7 626.096-274.274 626.412-262.01 626.834-255.984 626.517-250.17 625.252-245.835 624.408-239.915 622.51-236.849 621.139-233.783 619.663-229.555 616.816-227.44 614.706-225.326 612.597-222.789 609.328-221.732 607.43-220.674 605.426-219.829 600.681-219.512 595.619-219.089 588.448-219.406 586.234-221.414 581.594-222.894 578.325-225.643 574.423-228.392 571.997-230.929 569.783-235.686 566.514-239.069 564.826-242.452 563.034-249.324 560.081-254.399 558.288-259.473 556.601-274.274 552.172-287.171 548.692-300.174 545.106-315.715 540.361-321.741 538.041-327.661 535.826-335.802 532.241-339.713 530.132-343.519 527.917-350.073 522.855-354.197 518.743-359.271 513.681-362.76 509.041-364.98 504.401-366.777 500.604-368.786 494.277-369.526 490.27-370.266 485.841-370.583 478.353-370.16 471.288-369.843 463.59-368.786 457.052-367.306 452.201-366.037 448.088-363.394 441.971-361.385 438.491-359.482 435.011-355.782 429.739-353.351 426.786-350.813 423.728-346.796 419.615-344.259 417.611-341.827 415.502-337.07 412.128-333.687 410.124-330.41 408.121-324.067 405.062-319.627 403.27-315.081 401.582-307.786 399.368-303.24 398.524-298.589 397.575-293.726 396.731-292.246 396.415-290.766 396.204-281.039 396.099-270.573 396.309-257.887 396.52-248.901 397.259-243.615 398.419ZM1584.68 397.47C1590.49 398.419 1599.58 400.528 1604.87 402.32 1610.05 404.008 1618.72 407.382 1624 409.913 1629.29 412.444 1637.43 416.873 1642.08 419.931L1650.64 425.415 1641.02 442.604 1631.4 459.899 1625.06 454.942C1621.46 452.306 1615.33 448.404 1611.21 446.295 1607.19 444.186 1600.22 441.233 1595.88 439.757 1591.55 438.28 1584.25 436.277 1579.81 435.433 1574.95 434.379 1566.39 433.746 1558.67 433.746 1551.48 433.746 1542.49 434.484 1538.69 435.222 1534.78 436.066 1529.17 437.964 1526.21 439.546 1523.25 441.022 1518.92 444.186 1516.59 446.506 1514.27 448.932 1511.41 453.361 1510.14 456.735 1508.35 461.586 1508.03 464.433 1508.35 471.288 1508.66 478.142 1509.4 480.779 1511.62 484.575 1513.1 487.212 1516.06 490.586 1518.07 492.168 1520.08 493.644 1525.16 496.492 1529.17 498.495 1533.19 500.394 1543.55 503.979 1552.22 506.299 1560.78 508.619 1575.27 512.521 1584.25 514.946 1593.24 517.372 1605.29 521.168 1611 523.383 1616.6 525.597 1624.74 529.394 1628.97 531.924 1633.09 534.35 1639.75 539.517 1643.56 543.419 1647.89 547.848 1651.81 553.016 1653.92 557.234 1655.72 560.925 1657.94 567.041 1658.89 570.732 1660.16 576.005 1660.47 581.066 1660.16 592.35 1659.73 605.11 1659.31 608.379 1656.88 615.128 1655.29 619.452 1651.91 626.201 1649.27 629.997 1646.63 633.899 1642.29 639.067 1639.65 641.387 1637.11 643.812 1632.14 647.608 1628.55 649.928 1625.06 652.143 1619.03 655.201 1615.12 656.677 1611.21 658.154 1604.02 660.368 1599.05 661.528 1594.08 662.688 1584.04 664.165 1576.64 664.797 1566.81 665.641 1559.51 665.641 1549.37 664.797 1541.75 664.165 1530.76 662.688 1525.05 661.528 1519.34 660.368 1510.25 657.943 1504.75 656.256 1499.36 654.463 1489.63 650.456 1483.19 647.398 1476.74 644.339 1467.33 639.067 1462.25 635.797L1453.16 629.786 1459.72 617.448C1463.31 610.699 1467.75 602.474 1469.44 599.205L1472.72 593.299 1476.95 596.885C1479.27 598.888 1485.19 602.896 1489.95 605.848 1494.81 608.801 1503.38 613.019 1508.88 615.234 1514.48 617.554 1524.31 620.823 1530.76 622.616 1540.91 625.463 1544.82 625.99 1559.51 626.412 1573.26 626.834 1578.23 626.623 1584.57 625.252 1589.01 624.197 1595.46 621.983 1598.95 620.296 1602.44 618.503 1606.56 615.55 1608.14 613.757 1609.73 611.859 1611.95 608.379 1613.01 605.848 1614.49 602.685 1615.02 598.994 1615.02 593.51 1615.02 587.816 1614.38 584.441 1612.69 580.855 1611.42 578.219 1608.36 574.212 1605.82 571.997 1603.28 569.783 1598.52 566.514 1595.14 564.826 1591.76 563.034 1584.78 560.081 1579.6 558.288 1574.53 556.495 1561.42 552.594 1550.53 549.641 1539.74 546.688 1526.11 542.681 1520.29 540.783 1514.37 538.779 1506.34 535.721 1502.32 533.928 1498.41 532.135 1492.17 528.655 1488.68 526.125 1485.09 523.593 1480.23 519.375 1477.79 516.739 1475.36 514.103 1471.87 509.041 1470.08 505.455 1468.28 501.764 1466.06 495.753 1465.21 491.852 1464.47 488.055 1463.73 480.99 1463.73 476.244 1463.73 471.499 1464.47 463.906 1465.32 459.372 1466.27 454.099 1468.6 447.561 1471.77 441.339 1475.26 434.062 1478.64 429.317 1484.03 423.622 1488.15 419.404 1494.39 414.026 1498.09 411.706 1501.69 409.386 1507.61 406.328 1511.1 404.851 1514.58 403.375 1521.03 401.16 1525.37 400 1529.6 398.841 1535.94 397.47 1539.43 396.942 1542.81 396.415 1552.01 395.993 1559.83 395.888 1568.29 395.782 1578.23 396.415 1584.68 397.47ZM2181.88 397.364C2186.95 398.208 2194.88 400.317 2199.64 402.109 2204.4 403.797 2211.9 407.171 2216.34 409.597 2220.78 412.022 2227.02 415.924 2230.19 418.244 2233.36 420.564 2237.91 424.15 2240.23 426.259 2242.56 428.262 2247.53 433.324 2251.23 437.331 2254.93 441.444 2260.74 448.932 2264.02 453.888 2267.3 458.844 2272.27 468.019 2275.01 474.346 2277.76 480.673 2281.15 489.953 2282.52 495.121 2283.9 500.183 2285.59 508.935 2286.33 514.524 2287.07 520.535 2287.28 529.815 2286.96 536.986 2286.64 543.735 2285.59 553.016 2284.64 557.655 2283.68 562.295 2281.67 569.677 2280.3 574.001 2278.82 578.325 2275.33 586.656 2272.48 592.561 2269.62 598.361 2264.34 607.114 2260.74 612.07 2257.15 616.921 2251.02 623.986 2247.21 627.783 2243.4 631.579 2236.96 637.063 2232.83 640.121 2228.82 643.179 2220.99 647.925 2215.39 650.772 2209.89 653.725 2201.54 657.31 2196.89 658.786 2192.24 660.368 2183.89 662.372 2178.39 663.11 2172.89 663.954 2164.43 664.692 2159.68 664.692 2154.92 664.692 2147.41 664.165 2142.97 663.532 2138.43 662.899 2131.24 661.528 2126.9 660.368 2122.57 659.314 2114.53 656.361 2109.25 653.83 2103.86 651.299 2095.72 646.659 2091.17 643.601 2086.63 640.543 2079.12 634.426 2074.47 629.997 2069.82 625.568 2063.26 618.397 2059.98 613.968 2056.71 609.539 2052.27 602.79 2050.15 599.099 2048.04 595.303 2044.66 588.026 2042.54 582.965 2040.43 577.797 2037.89 569.994 2036.73 565.67 2035.67 561.241 2034.19 554.386 2033.55 550.379 2032.92 546.372 2032.39 536.881 2032.39 529.288 2032.39 521.59 2033.13 511.361 2034.08 505.983 2035.03 500.815 2037.15 492.273 2038.95 487.212 2040.64 482.044 2044.13 473.608 2046.77 468.441 2049.41 463.168 2053.85 455.47 2056.71 451.252 2059.56 447.033 2065.59 439.651 2070.24 434.801 2074.78 429.95 2082.08 423.306 2086.52 420.037 2090.96 416.768 2099.31 411.706 2105.02 408.753 2110.83 405.801 2118.55 402.426 2122.36 401.16 2126.16 400 2133.04 398.313 2137.69 397.47 2142.34 396.626 2152.17 395.888 2159.46 395.888 2167.08 395.782 2176.8 396.415 2181.88 397.364ZM2564.89 397.364C2570.92 398.313 2579.48 400.211 2583.82 401.582 2588.15 403.059 2595.24 405.906 2599.36 408.015 2603.59 410.124 2610.35 414.342 2614.48 417.401 2618.49 420.459 2624.84 425.942 2628.33 429.739 2631.92 433.43 2637.31 440.179 2640.27 444.713 2643.23 449.248 2645.66 453.255 2645.66 453.677 2645.66 453.993 2638.16 459.161 2629.17 465.172 2620.08 471.182 2612.57 475.928 2612.47 475.717 2612.26 475.506 2610.56 472.553 2608.66 469.073 2606.65 465.593 2601.47 459.161 2597.14 454.837 2592.49 450.197 2586.46 445.451 2582.76 443.553 2579.27 441.761 2573.35 439.335 2569.55 438.07 2565.74 436.91 2558.87 435.433 2554.22 434.695 2549.25 434.062 2542.16 433.852 2537.09 434.168 2532.23 434.59 2525.57 435.644 2522.29 436.488 2518.91 437.331 2513.09 439.441 2509.39 441.233 2505.69 442.921 2499.67 446.506 2495.97 449.037 2492.27 451.673 2486.66 456.946 2483.49 460.637 2480.32 464.433 2475.77 470.761 2473.45 474.663 2471.12 478.564 2467.95 484.997 2466.47 489.004 2464.88 493.117 2462.66 500.394 2461.4 505.35 2459.6 512.626 2459.18 517.583 2459.18 530.237 2459.28 543.841 2459.6 547.426 2461.92 556.179 2463.51 561.768 2466.36 569.888 2468.37 574.212 2470.28 578.536 2473.66 584.652 2475.67 587.816 2477.68 590.979 2482.12 596.568 2485.61 600.259 2488.99 603.95 2494.27 608.801 2497.23 611.016 2500.19 613.23 2505.9 616.605 2509.92 618.714 2513.94 620.717 2520.07 623.248 2523.56 624.303 2528.42 625.779 2533.28 626.201 2544.17 626.201 2552.21 626.096 2560.56 625.568 2563.2 624.83 2565.85 624.092 2570.6 622.405 2573.77 621.245 2576.95 619.979 2582.44 617.237 2585.93 615.234 2589.42 613.23 2595.87 608.063 2600.2 603.634 2604.54 599.205 2609.51 592.983 2611.2 589.819 2612.89 586.656 2614.48 583.808 2614.58 583.597 2614.79 583.386 2622.72 587.605 2632.13 592.983 2641.65 598.361 2649.47 602.896 2649.68 603.001 2649.89 603.212 2649.05 605.426 2647.67 607.957 2646.4 610.383 2643.34 615.339 2640.91 618.819 2638.37 622.405 2633.19 628.205 2629.38 631.79 2625.58 635.27 2619.66 640.121 2616.38 642.336 2613 644.656 2606.44 648.347 2601.79 650.667 2597.14 652.987 2589.53 656.256 2584.98 657.837 2580.33 659.419 2571.87 661.528 2566.16 662.688 2559.5 663.954 2551.15 664.692 2543.22 664.692 2536.35 664.692 2526.62 663.954 2521.66 663.11 2516.69 662.267 2509.18 660.263 2504.85 658.786 2500.62 657.31 2493.22 653.936 2488.35 651.299 2483.6 648.768 2475.99 643.812 2471.44 640.438 2466.89 637.063 2459.7 630.63 2455.26 625.99 2450.93 621.456 2445.22 614.706 2442.47 610.91 2439.83 607.114 2435.71 600.47 2433.38 596.146 2430.95 591.823 2427.57 584.652 2425.88 580.223 2424.08 575.794 2421.43 567.779 2420.06 562.401 2418.58 557.128 2416.89 547.11 2416.15 540.255 2415.2 530.764 2415.2 525.07 2416.15 516.106 2416.78 509.674 2418.47 499.972 2419.85 494.699 2421.22 489.321 2423.97 480.779 2425.98 475.823 2427.99 470.866 2431.58 463.484 2434.02 459.477 2436.34 455.364 2440.46 449.248 2443.11 445.768 2445.64 442.288 2451.88 435.539 2456.85 430.793 2461.82 426.048 2469.96 419.51 2474.82 416.346 2479.79 413.077 2487.19 408.859 2491.53 406.855 2495.75 404.851 2503.58 402.004 2508.76 400.528 2514.04 399.051 2521.66 397.47 2525.67 396.942 2529.8 396.415 2537.72 395.993 2543.54 395.888 2549.25 395.888 2558.87 396.52 2564.89 397.364ZM63.8132 416.03 64.0245 434.801 19.623 434.801-24.7787 434.801-24.7787 548.692-24.7787 662.583-45.9222 662.583-67.066 662.583-67.066 548.692-67.066 434.801-111.468 434.801-155.869 434.801-155.869 415.819-155.869 396.837-46.1338 397.048 63.496 397.364 63.8132 416.03ZM137.499 473.292C137.604 540.888 137.816 550.274 139.402 559.237 140.459 564.721 142.679 573.368 144.37 578.43 146.062 583.492 149.022 590.346 150.925 593.721 152.722 597.096 157.902 603.423 162.237 607.746 166.994 612.387 172.914 617.132 176.615 619.03 180.103 620.823 186.023 623.143 189.829 624.197 194.692 625.463 200.613 626.096 209.916 626.096 219.219 626.096 225.139 625.463 230.002 624.197 233.808 623.143 239.517 620.928 242.794 619.136 246.071 617.448 251.463 613.652 254.74 610.699 258.017 607.746 262.669 602.474 265.101 598.994 267.532 595.408 271.021 588.87 272.924 584.441 274.827 580.012 277.47 571.681 278.844 565.986 281.17 555.652 281.276 554.492 281.804 476.455L282.333 397.364 303.793 397.048 325.149 396.837 325.149 467.175C325.149 506.932 324.62 543.103 323.986 550.274 323.457 557.234 321.977 567.463 320.814 572.946 319.757 578.43 317.537 586.761 315.951 591.401 314.471 596.041 311.511 603.107 309.502 607.219 307.494 611.227 303.476 618.081 300.516 622.299 297.556 626.517 291.742 633.161 287.619 637.063 283.39 640.965 276.095 646.448 271.338 649.296 266.686 652.143 258.123 656.045 252.415 657.943 246.706 659.947 236.98 662.267 230.954 663.216 222.708 664.481 215.942 664.797 204.101 664.27 194.481 663.954 184.649 662.899 179.046 661.634 174.077 660.474 166.254 658.048 161.708 656.15 157.162 654.252 149.339 649.928 144.37 646.659 139.296 643.285 132.213 637.274 128.513 633.372 124.813 629.47 119.738 622.932 116.99 618.925 114.347 614.812 110.329 607.114 108.109 601.946 105.783 596.674 102.823 587.921 101.343 582.437 99.9688 576.954 98.0659 567.674 97.1145 561.874 95.7401 553.121 95.3173 538.146 95.0001 475.612 94.6829 433.957 94.7887 399.157 95.1057 398.313 95.6343 397.048 99.0174 396.837 116.567 397.048L137.499 397.364 137.499 473.292ZM486.897 397.891C494.826 398.524 505.927 400.106 511.847 401.477 517.767 402.953 526.859 406.011 532.145 408.226 537.431 410.44 545.888 415.081 551.068 418.56 556.143 421.935 563.966 428.262 568.406 432.692 572.741 437.121 578.661 444.186 581.515 448.404 584.264 452.728 588.175 459.266 590.184 463.168 592.087 466.964 595.047 474.452 596.739 479.619 598.43 484.892 600.756 493.223 601.813 498.073 603.293 505.244 603.716 511.783 603.716 530.237 603.716 550.695 603.399 554.703 601.285 564.405 599.91 570.415 597.584 578.746 596.104 582.859 594.624 586.972 591.453 594.143 589.127 598.783 586.695 603.317 582.044 610.699 578.767 615.128 575.595 619.452 569.569 626.096 565.552 629.892 561.535 633.688 554.768 639.067 550.646 641.808 546.522 644.55 539.439 648.452 534.893 650.561 530.348 652.565 522.63 655.412 517.661 656.888 512.693 658.365 504.024 660.263 498.526 661.001 490.809 662.267 476.114 662.583 434.355 662.583L380.122 662.583 380.122 530.448C380.122 457.684 380.439 397.891 380.862 397.575 381.179 397.153 402.006 396.837 427.061 396.837 452.116 396.837 479.074 397.364 486.897 397.891ZM828.156 416.03 828.367 434.801 759.65 434.801 690.933 434.801 690.933 472.237 690.933 509.674 750.136 509.674 809.338 509.674 809.338 527.074 809.338 544.474 750.136 544.474 690.933 544.474 690.933 585.074 690.933 625.674 761.236 625.674 831.539 625.674 831.539 644.128 831.539 662.583 740.093 662.583 648.646 662.583 648.646 529.71 648.646 396.837 738.295 397.048 827.839 397.364 828.156 416.03ZM982.821 491.746 1058.3 586.656 1058.62 492.273 1058.83 397.891 1080.51 397.891 1102.18 397.891 1102.18 530.237 1102.18 662.583 1084.31 662.583 1066.55 662.583 1029.76 616.921C1009.57 591.928 976.055 550.379 955.335 524.648L917.699 477.932 917.382 570.205 917.17 662.583 895.498 662.583 873.826 662.583 873.826 530.448C873.826 457.684 874.143 397.891 874.566 397.575 874.883 397.153 882.495 396.837 891.27 396.837L907.339 396.837 982.821 491.746ZM1356.96 415.819 1356.96 434.801 1312.56 434.801 1268.15 434.801 1268.15 548.692 1268.15 662.583 1247.01 662.583 1225.87 662.583 1225.87 548.692 1225.87 434.801 1181.47 434.801 1137.06 434.801 1137.06 415.819 1137.06 396.837 1247.01 396.837 1356.96 396.837 1356.96 415.819ZM1851.72 501.87C1873.5 559.659 1891.58 607.008 1892 607.219 1892.32 607.43 1910.39 560.292 1932.17 502.503L1971.71 397.364 1994.33 397.048C2015.48 396.837 2016.85 396.942 2016.22 398.63 2015.79 399.684 1991.9 459.477 1963.04 531.608L1910.5 662.583 1892.1 662.372 1873.71 662.056 1820.43 529.815C1791.14 457.052 1767.14 397.364 1767.14 397.153 1767.14 396.942 1777.29 396.837 1789.66 396.837L1812.07 396.837 1851.72 501.87ZM2372.91 529.71 2372.91 662.583 2351.77 662.583 2330.62 662.583 2330.62 529.71 2330.62 396.837 2351.77 396.837 2372.91 396.837 2372.91 529.71ZM2867.67 415.819 2867.67 434.801 2799.48 434.801 2731.29 434.801 2731.29 472.237 2731.29 509.674 2790.5 509.674 2849.7 509.674 2849.7 527.074 2849.7 544.474 2790.5 544.474 2731.29 544.474 2731.29 585.074 2731.29 625.674 2801.07 625.674 2870.84 625.674 2870.84 644.128 2870.84 662.583 2779.4 662.583 2687.95 662.583 2687.95 530.448C2687.95 457.684 2688.27 397.891 2688.69 397.575 2689.01 397.153 2729.5 396.837 2778.55 396.837L2867.67 396.837 2867.67 415.819Z" fill="#01579B" fill-rule="evenodd"/><path d="M2146.97 434.607C2143.59 435.238 2138.3 436.396 2135.33 437.343 2132.48 438.29 2126.98 440.711 2123.17 442.711 2119.36 444.816 2113.33 448.815 2109.73 451.656 2106.13 454.498 2100.84 459.76 2097.99 463.339 2095.13 466.917 2091.32 472.179 2089.63 475.126 2087.93 477.967 2085.29 483.335 2083.7 486.913 2082.12 490.492 2079.89 497.122 2078.73 501.647 2077.46 506.173 2076.08 514.382 2075.56 519.855 2074.81 526.485 2074.81 533.326 2075.56 540.588 2076.19 546.587 2077.88 555.638 2079.36 560.689 2080.85 565.741 2083.7 573.214 2085.61 577.318 2087.62 581.528 2092.06 588.684 2095.55 593.315 2099.04 597.946 2105.07 604.261 2109.1 607.523 2113.01 610.68 2119.36 614.995 2123.17 616.995 2126.98 619.1 2133.54 621.731 2137.66 622.889 2141.89 624.046 2148.98 625.309 2153.53 625.625 2158.08 626.046 2165.49 625.836 2170.04 625.204 2174.48 624.573 2181.15 623.099 2184.85 621.836 2188.45 620.679 2194.58 617.837 2198.5 615.522 2202.31 613.312 2208.23 608.997 2211.51 606.05 2214.79 602.998 2219.55 597.841 2222.09 594.578 2224.63 591.316 2228.44 585.527 2230.45 581.738 2232.57 577.95 2235.64 570.898 2237.33 566.057 2238.92 561.216 2240.93 553.849 2241.77 549.849 2242.73 545.324 2243.25 536.694 2243.15 527.748 2243.04 515.54 2242.51 511.225 2240.29 502.805 2238.81 497.227 2235.74 488.597 2233.42 483.651 2231.09 478.81 2227.6 472.495 2225.69 469.653 2223.79 466.917 2219.77 462.076 2216.8 458.918 2213.95 455.866 2208.55 451.235 2204.95 448.71 2201.46 446.078 2195.01 442.5 2190.67 440.501 2186.44 438.606 2180.62 436.396 2177.87 435.765 2175.01 435.133 2168.35 434.396 2163.06 434.081 2157.66 433.87 2150.46 434.081 2146.97 434.607Z" fill="#01579B" fill-rule="evenodd"/><path d="M422.212 529.647 422.529 625.188 454.799 625.188C481.991 625.188 488.445 624.871 495.534 623.283 500.189 622.225 508.971 618.946 515.002 615.983 524.524 611.433 527.275 609.423 534.576 602.017 539.337 597.256 544.733 590.696 546.743 587.416 548.647 584.03 551.398 578.423 552.774 574.931 554.255 571.439 556.371 564.88 557.535 560.436 558.593 555.886 560.074 547.104 560.603 540.862 561.238 533.667 561.238 525.203 560.603 518.008 560.074 511.766 558.699 503.09 557.535 498.646 556.477 494.308 554.255 487.748 552.774 483.94 551.293 480.236 548.013 474.206 545.685 470.502 543.251 466.799 537.538 460.239 532.988 456.007 526.852 450.188 522.197 447.014 514.896 443.417 509.5 440.771 501.988 437.809 498.179 436.751 492.466 435.27 485.271 434.846 456.598 434.529L422 434 422.212 529.647Z" fill="#01579B" fill-rule="evenodd"/><path d="M0 563.982 158.297 0 316.595 563.982Z" fill="#01325B" fill-rule="evenodd" transform="matrix(-0.270634 0.962682 0.962682 0.270634 -556.196 678.935)"/></g></svg>