<?xml version="1.0" standalone="no"?>
<!DOCTYPE svg PUBLIC "-//W3C//DTD SVG 20010904//EN"
 "http://www.w3.org/TR/2001/REC-SVG-20010904/DTD/svg10.dtd">
<svg version="1.0" xmlns="http://www.w3.org/2000/svg"
 width="700.000000pt" height="700.000000pt" viewBox="0 0 700.000000 700.000000"
 preserveAspectRatio="xMidYMid meet">
<metadata>
Created by potrace 1.11, written by Peter Selinger 2001-2013
</metadata>
<g transform="translate(0.000000,700.000000) scale(0.100000,-0.100000)"
fill="#000000" stroke="none">
<path d="M3257 5844 c-1 -1 -85 -5 -187 -8 -102 -4 -205 -9 -230 -11 -25 -2
-85 -7 -135 -10 -49 -3 -112 -8 -140 -10 -27 -3 -79 -7 -115 -10 -36 -2 -85
-7 -110 -10 -25 -2 -70 -7 -100 -10 -30 -3 -71 -8 -90 -10 -19 -2 -60 -7 -90
-10 -30 -3 -66 -8 -80 -10 -14 -2 -45 -7 -70 -10 -298 -39 -730 -133 -730
-159 0 -12 104 -326 119 -361 5 -11 33 -83 62 -160 73 -196 222 -548 331 -782
88 -190 311 -636 378 -759 37 -67 284 -499 315 -550 65 -108 140 -224 145
-223 3 0 20 32 39 70 l34 70 -35 37 c-110 116 -134 145 -189 225 -57 86 -70
119 -49 132 10 6 252 -115 422 -212 43 -23 80 -43 84 -43 4 0 16 -7 26 -17 29
-26 21 -7 -13 31 -40 46 -33 64 38 111 148 98 250 139 448 180 17 4 82 8 145
11 95 3 136 0 235 -21 66 -14 138 -32 160 -41 128 -50 296 -148 315 -184 8
-16 4 -26 -30 -60 -21 -22 -36 -40 -32 -40 5 0 12 4 17 9 22 19 518 281 534
281 5 0 11 -9 14 -19 3 -13 -15 -49 -50 -103 -59 -90 -74 -109 -171 -210 l-65
-68 33 -62 c54 -104 44 -109 167 79 108 166 233 372 308 508 21 39 47 86 58
105 30 54 210 414 255 510 105 225 225 513 328 785 36 94 68 177 71 185 3 8 7
20 9 25 2 6 44 125 93 266 49 141 93 268 96 282 7 24 4 27 -62 45 -59 18 -209
53 -283 67 -230 44 -414 73 -635 101 -22 3 -56 7 -75 9 -19 3 -64 7 -100 10
-36 3 -85 7 -110 10 -259 25 -565 37 -988 39 -172 1 -314 1 -315 0z m103
-1069 c47 -2 88 -3 91 -4 9 -1 69 -94 64 -99 -2 -2 -18 4 -36 14 -22 11 -57
17 -105 17 l-73 0 -47 48 -48 49 34 -11 c19 -6 73 -12 120 -14z m-617 -134
c127 -44 260 -135 299 -205 41 -74 -9 -145 -159 -226 l-42 -23 -61 41 c-41 27
-67 38 -78 34 -9 -4 -46 -22 -81 -41 l-65 -33 -55 23 c-171 70 -231 155 -169
241 42 60 178 147 293 189 62 23 51 23 118 0z m1059 2 c46 -18 68 -51 68 -100
0 -44 -9 -83 -19 -83 -4 0 -14 14 -22 32 -8 17 -26 40 -40 51 -53 39 -166 31
-247 -16 l-34 -20 66 -26 c36 -14 66 -28 66 -31 0 -3 -20 -19 -45 -34 -42 -27
-57 -46 -35 -46 19 0 50 -44 50 -72 0 -33 -35 -73 -95 -108 l-40 -23 27 29
c49 54 42 87 -26 121 l-54 26 49 40 c28 22 48 41 46 43 -2 2 -28 12 -58 22
l-54 19 -66 -30 c-65 -28 -68 -29 -101 -13 -19 9 -49 29 -67 44 -41 34 -44 82
-9 135 29 46 50 56 44 21 -10 -52 40 -104 101 -106 15 0 93 27 173 61 197 84
245 94 322 64z m230 -16 c-5 -42 27 -83 74 -96 32 -9 52 -3 202 56 151 60 174
66 242 67 63 1 80 -3 107 -22 40 -28 54 -73 39 -124 -13 -43 -26 -59 -26 -32
0 10 -10 31 -23 45 -61 71 -138 69 -309 -10 -125 -58 -185 -141 -179 -244 1
-11 15 -32 32 -48 l31 -29 -36 0 c-42 0 -111 32 -120 55 -14 38 0 106 35 168
8 15 6 20 -12 24 -81 21 -137 79 -125 129 5 18 61 94 70 94 1 0 0 -15 -2 -33z"/>
<path d="M2630 4580 c-14 -11 -29 -20 -33 -20 -12 0 -76 -49 -112 -84 -72 -72
-82 -118 -39 -182 15 -21 28 -41 30 -43 2 -2 22 8 46 21 24 14 73 42 110 62
l67 37 95 -70 95 -70 30 34 c64 73 48 144 -53 228 -59 49 -166 107 -196 107
-8 0 -26 -9 -40 -20z"/>
<path d="M626 4843 c3 -21 17 -81 31 -132 57 -220 82 -266 182 -334 42 -29
184 -85 261 -102 14 -3 99 -28 125 -36 17 -5 125 -37 240 -70 116 -34 222 -65
238 -69 15 -5 27 -7 27 -6 0 2 -19 43 -42 92 -23 49 -81 177 -129 284 l-87
195 -148 38 c-363 94 -690 177 -697 177 -4 0 -5 -17 -1 -37z"/>
<path d="M6120 4815 c-135 -34 -317 -81 -404 -104 -111 -28 -163 -46 -170 -58
-6 -10 -34 -74 -62 -143 -29 -69 -79 -188 -112 -265 -33 -77 -59 -141 -58
-142 1 -1 31 7 66 18 36 11 166 49 290 85 382 110 444 132 504 172 30 20 68
55 85 77 57 78 154 427 119 424 -7 0 -123 -29 -258 -64z"/>
<path d="M1007 4244 c-1 -1 -114 -5 -252 -8 -279 -7 -478 -16 -484 -21 -6 -7
181 -370 219 -424 60 -84 126 -122 238 -135 35 -4 233 -9 294 -7 14 1 3 23
-45 99 -84 131 -92 148 -73 177 9 14 27 24 48 26 18 2 214 4 436 4 438 0 420
-3 385 56 -21 35 -41 42 -501 174 -166 48 -255 68 -265 59z"/>
<path d="M5915 4234 c-105 -27 -166 -44 -350 -99 -287 -84 -278 -81 -297 -121
-10 -19 -18 -40 -18 -47 0 -9 98 -12 416 -13 373 -2 417 -4 434 -19 10 -9 17
-27 15 -40 -2 -19 -60 -121 -131 -231 -14 -20 -12 -20 49 -18 34 2 114 5 177
8 182 7 247 38 330 155 24 35 212 402 207 407 -5 5 -230 14 -497 20 -151 3
-277 7 -280 9 -3 1 -27 -4 -55 -11z"/>
<path d="M1010 3910 c-53 -4 -74 -9 -72 -18 3 -17 91 -157 168 -268 71 -103
119 -156 161 -177 38 -20 164 -34 478 -52 50 -3 115 -7 145 -10 30 -2 90 -7
133 -11 72 -5 77 -5 70 13 -3 10 -9 23 -13 28 -9 12 -127 239 -201 385 -29 58
-55 107 -57 110 -2 3 -169 5 -370 5 -202 0 -401 -2 -442 -5z"/>
<path d="M5221 3906 c-5 -6 -43 -81 -86 -166 -93 -187 -164 -322 -176 -334
-20 -22 -9 -36 24 -31 17 2 73 7 122 10 50 3 122 8 160 10 39 3 99 7 135 10
36 2 106 7 155 10 151 10 209 29 255 82 41 47 103 132 172 239 76 117 102 164
94 171 -11 11 -846 10 -855 -1z"/>
<path d="M1325 3330 c-77 -27 -218 -75 -313 -106 l-173 -58 158 -159 c159
-160 287 -271 329 -288 37 -13 76 -16 114 -8 19 4 46 10 60 13 52 11 375 97
379 101 2 2 -11 12 -28 22 -55 31 -285 194 -318 226 -25 23 -30 34 -22 43 6 8
106 45 222 83 260 86 294 98 332 116 30 14 30 15 5 16 -14 0 -36 2 -50 4 -46
5 -244 19 -435 30 -60 4 -112 8 -115 10 -3 2 -68 -19 -145 -45z"/>
<path d="M5528 3375 c-2 -2 -56 -6 -122 -10 -65 -4 -137 -9 -160 -10 -22 -2
-86 -7 -141 -11 -55 -4 -111 -8 -125 -9 -14 -2 -34 -4 -45 -4 -31 -3 22 -23
305 -117 140 -47 259 -89 263 -93 4 -4 5 -15 2 -23 -7 -17 -203 -163 -308
-228 -37 -24 -66 -44 -65 -45 2 -2 50 -15 108 -29 58 -15 119 -31 135 -36 29
-8 109 -30 130 -35 182 -40 193 -34 508 278 88 87 158 159 155 162 -6 6 -567
197 -605 205 -18 4 -33 6 -35 5z"/>
<path d="M2080 3279 c-25 -11 -146 -54 -270 -95 -124 -41 -231 -77 -239 -79
-16 -6 26 -40 187 -149 177 -120 244 -148 384 -165 46 -6 101 -13 123 -16 22
-2 75 -7 117 -11 73 -5 78 -4 71 13 -3 10 -9 20 -13 23 -10 9 -252 417 -282
478 -13 26 -20 26 -78 1z"/>
<path d="M3295 3275 c-155 -33 -240 -68 -368 -152 l-68 -45 86 -89 c80 -81 95
-107 69 -116 -6 -2 -59 26 -117 61 -59 36 -135 80 -170 99 -112 62 -335 177
-342 177 -17 0 100 -148 195 -247 39 -39 70 -74 70 -78 0 -16 173 -160 305
-254 275 -194 479 -306 554 -305 67 1 240 92 441 232 36 25 90 63 121 83 134
90 235 179 369 329 41 45 80 88 86 94 5 6 31 40 57 76 45 62 60 93 35 72 -7
-5 -67 -38 -133 -72 -66 -35 -151 -80 -188 -101 -38 -22 -71 -39 -73 -39 -3 0
-32 -18 -65 -40 -33 -22 -62 -40 -65 -40 -2 0 -22 -12 -44 -26 -39 -26 -60
-25 -60 1 0 8 36 52 80 97 l80 83 -25 20 c-90 74 -252 146 -401 178 -149 32
-282 33 -429 2z"/>
<path d="M4871 3248 c-13 -24 -78 -130 -145 -236 -67 -106 -129 -206 -140
-223 l-19 -31 64 6 c145 14 163 16 274 32 81 11 159 40 240 88 69 41 305 208
305 215 0 3 -119 45 -263 94 -144 48 -269 90 -277 92 -10 4 -23 -9 -39 -37z"/>
<path d="M2557 2699 c-90 -184 -114 -275 -124 -464 -5 -101 -3 -116 20 -184
14 -40 38 -91 54 -114 87 -126 481 -453 786 -652 78 -51 205 -125 214 -125 5
0 48 23 94 51 286 173 620 430 820 630 115 115 173 249 163 382 -9 125 -25
217 -51 302 -18 57 -132 295 -142 295 -3 0 -19 -43 -35 -95 l-29 -96 21 -62
c38 -111 45 -188 26 -282 -40 -192 -172 -330 -360 -379 -107 -28 -240 -14
-335 34 -22 12 -43 18 -48 16 -5 -3 -19 -32 -32 -63 -53 -131 -85 -171 -114
-142 -8 8 -35 59 -59 113 -24 54 -46 100 -49 102 -2 2 -26 -7 -54 -21 -187
-98 -412 -64 -566 83 -101 97 -153 232 -144 375 5 89 11 117 43 188 l26 57
-27 83 c-15 46 -28 89 -30 94 -1 6 -32 -51 -68 -126z"/>
<path d="M2072 2677 c-213 -173 -320 -273 -307 -286 20 -19 302 -130 384 -151
70 -18 226 -30 236 -18 1 2 5 33 9 69 3 37 13 101 22 144 13 63 14 82 4 101
-12 21 -10 27 16 59 67 83 75 98 62 111 -7 6 -49 15 -93 18 -107 8 -195 17
-222 21 -17 3 -48 -17 -111 -68z"/>
<path d="M4819 2746 c-2 -2 -34 -7 -71 -10 -38 -3 -98 -9 -135 -12 -112 -10
-121 -32 -45 -116 33 -37 35 -41 24 -71 -9 -25 -8 -46 3 -95 14 -57 30 -191
26 -209 -4 -19 132 -18 225 1 71 15 290 98 381 145 l37 18 -30 28 c-56 54
-305 266 -346 295 -38 28 -59 36 -69 26z"/>
<path d="M2817 2483 c-33 -84 -29 -178 10 -255 23 -48 91 -106 147 -127 72
-27 164 -23 226 8 43 22 120 87 120 102 0 4 -32 28 -72 53 l-72 46 -21 -20
c-51 -48 -132 -41 -166 13 -16 25 -19 43 -15 82 l6 50 -69 43 c-38 23 -71 42
-74 42 -3 0 -11 -17 -20 -37z"/>
<path d="M4077 2475 c-58 -39 -67 -48 -62 -68 12 -48 12 -63 -2 -89 -31 -63
-109 -79 -166 -35 l-33 25 -72 -45 -71 -45 22 -29 c31 -42 99 -85 157 -99 130
-31 254 27 317 148 29 56 32 69 29 135 -3 67 -27 148 -44 147 -4 -1 -37 -21
-75 -45z"/>
</g>
</svg>
