<svg version="1" xmlns="http://www.w3.org/2000/svg" width="933.333" height="933.333" viewBox="0 0 700.000000 700.000000"><path d="M316.9 136.4c-.2.2-6.7.7-14.4 1-27.5 1.2-42 2.4-65.5 5.1-1.9.3-5.7.7-8.5 1-2.7.3-6.6.7-8.5 1-1.9.2-5.5.7-8 1-4.1.5-12.4 1.8-19 2.9-1.4.3-4.3.7-6.5 1.1-13.7 2-41.3 8.5-44.4 10.5-1.7 1 9 32.9 21.2 63.5 4.7 11.5 8.3 21.1 8.2 21.3-.1.1-2.9-.5-6.1-1.3-48.2-12.8-74.3-19.2-75.5-18.4-1.1.7 3.4 21.8 6.7 31.1 3.8 11 13.1 19.1 25.5 22.4 3.5 1 6.7 2 7.1 2.3.4.3-2.3.7-6 .7-24 .5-65.3 2.2-66 2.8-.5.6 16.4 33.6 19.9 38.8 8.6 12.6 14.6 14.5 45.7 14.7 6.6.1 8.5.4 9.6 1.8.8 1 3.4 4.3 5.8 7.3 5.6 7 11.8 10.9 18 11.3 2.6.1 4.9.5 5.2.8.3.3-2.9 1.7-7.2 3.1-4.2 1.5-16 5.5-26.1 8.9-10 3.5-18.5 6.9-18.8 7.7-.4.8 4.6 6.5 13.3 15.2 24.1 23.9 28.5 27 38.2 27 5.7 0 9.2-.9 33.4-8.3 11.4-3.5 11.8-3.6 16-2.1 2.4.9 7.2 2.1 10.7 2.8l6.4 1.2-3.4 2.7c-1.9 1.5-10.6 8.5-19.4 15.5-8.8 7-16 13.4-16 14.2 0 1.9 2.9 3.2 24.8 11.4 17.7 6.7 17.8 6.7 26.7 6.4 8.4-.3 9-.2 9.1 1.7.7 11.5 5.7 23.3 14.1 33.1 10.2 11.9 51.5 43.6 77 59.2l6.6 4.1 8.9-5.3c12.9-7.6 45.8-30.5 48.3-33.5.3-.4 4.3-3.8 9-7.6s12.6-11 17.6-15.9c7.9-8 9.4-10 11.6-16.1 1.4-3.9 3.2-9.6 3.9-12.8l1.4-5.7 7 .1c3.8 0 8.4-.2 10-.6 2.8-.7 18.9-6.9 26-10 1.7-.7 4.6-1.8 6.5-2.5 6-2.2 10-4.2 10-5 0-.5-3.7-3.7-8.1-7.2-4.5-3.4-8.6-6.8-9.3-7.3-.6-.6-5.9-4.8-11.8-9.4-6-4.5-10.8-8.7-10.8-9.2s1-.9 2.3-.9c1.3 0 5.9-.9 10.3-2.1 9-2.3 6.4-2.8 31.4 5.2 13.9 4.4 16.3 4.9 23 4.6 4.7-.2 8.8-1 11-2.2 5.7-3 39-37 39-39.9 0-1.3-8.9-4.6-37.8-14.2-9.4-3.1-17.1-5.8-17-6 .2-.1 3.2-.5 6.8-.9 8.5-.8 14-4.2 20.9-12.8l5.4-6.7 9.6-.1c21.6-.2 29-1.5 36.6-6.4 5.7-3.7 10.3-10.4 18.4-27 8.3-16.8 9.3-19.3 8.2-19.9-.7-.5-7.3-.8-42.1-2.1-5.8-.2-15.3-.5-21.2-.6-11.1-.3-13.7-1.2-7-2.4 14.8-2.6 26.8-10.6 31.1-20.5 3.1-7.3 8.2-27.2 8.5-33.5.1-2.8 2.9-3.4-58.1 12.3-6.2 1.6-11.3 2.6-11.3 2.1 0-.9 6.5-19.4 7.9-22.4 2.1-4.4 18.1-51.2 19.4-56.6.6-2.2.3-2.8-1.6-3.2-1.2-.3-4-1.1-6.2-1.6-7.6-2.1-27.8-6.4-40-8.6-1.6-.2-5.5-.9-8.5-1.5-7.4-1.3-10.5-1.8-16.9-2.5-3-.4-6.2-.8-7.2-1-1-.2-4.4-.6-7.6-1-3.2-.3-7.1-.8-8.8-1-1.6-.2-6.1-.7-10-1-3.8-.3-8.1-.8-9.5-1-1.4-.2-7.7-.7-14-1.1-6.3-.3-13.3-.8-15.5-1-5.1-.5-99.2-1.4-99.6-1zm20.6 97.6h7l2.8 4.4c3.4 5.5 3.4 6-.3 4.1-1.8-.9-5.6-1.5-9.7-1.5-6.8 0-7-.1-10.8-4.1l-4-4.1 4 .6c2.2.3 7.2.5 11 .6zm-54.6 13.9c11.9 4.8 21.1 11.6 24.1 17.8 2.4 4.9.9 9.4-4.4 13.8-5.3 4.2-13.6 8.6-15 7.8-.6-.3-3.2-2.1-5.7-3.9-4.4-3.2-4.6-3.3-7.5-1.7-1.6.8-5 2.6-7.6 3.9l-4.7 2.5-7.3-3.6c-8.3-3.9-12.4-7.4-14.3-11.9-1.1-2.7-1.1-3.5.6-6.7 3.3-6.5 15.1-14.7 27.9-19.5 5-1.8 6-1.7 13.9 1.5zm92.7-1.9c6.3 2.1 8.9 8 6.3 14.7l-1.1 2.8-1.5-3c-4.3-8.2-11.4-9.5-24.7-4.4l-6 2.2 4.5 1.9c2.4 1 5.2 2.1 6.2 2.4 2.6.9 2.1 2.1-2.3 4.7l-4 2.3 3 2.9c1.7 1.6 3 3.9 3 5.2 0 2.3-5.3 8.3-9 10.3-2.5 1.3-2.5.9 0-2 3.6-4.2 2-7.9-4.8-10.7l-3.5-1.4 3.4-2.9c1.9-1.6 3.7-2.9 4.2-3 2-.1.3-2.1-2.9-3.5-4.9-2-7.7-1.9-12.4.5-5.2 2.7-7.8 2.5-12.8-.7-6.2-4-7.1-8.7-2.9-15 2.8-4.1 3.6-4.1 3.5-.1-.1 2.2.7 3.8 2.6 5.5 4.7 4 6.5 3.8 20.2-1.8 20.8-8.4 24.1-9.2 31-6.9zm21.9 2.7c0 3.1.6 4.1 3.4 6 1.9 1.3 4.4 2.3 5.7 2.3 1.3 0 8.5-2.5 16.1-5.6 15.6-6.3 23.4-7.7 29.5-5.1 5.3 2.2 7.4 6.6 5.8 12.3-1.2 4-3 5.2-3 1.8 0-2.7-4.2-6.3-8.4-7-5.8-1.1-8.1-.7-16.6 2.9-10.6 4.4-13.7 6.4-16.9 11.1-5.8 8.4-5.7 15.8.4 19.5 1.7 1 1.3 1.1-2.8.7-6-.7-8.3-1.9-10.1-5.4-1.3-2.5-1.2-3.5.8-9.5l2.3-6.8-5-2.5c-5.7-2.8-7.6-4.9-7.7-8.2 0-2.3 3.2-7.9 5.5-9.4l1-.8v3.7zm28.8 159.5c-.2 1.8-1.6 6.5-2.9 10.5l-2.5 7.2 3.7 8.8c5 11.7 5.4 20.4 1.5 28.3-3.9 8.1-17.9 21.7-26.6 26-10.1 4.9-16.1 4.9-28.2-.2-11.8-4.8-13-4.8-14.9-.1-2.8 7.3-7.8 16.3-8.9 16.3-.6 0-3.2-4.3-5.8-9.5-2.6-5.2-5.3-9.5-6-9.5-.7 0-5.2 1.1-10.1 2.6-8.6 2.4-18.2 3.3-22.8 1.9-18.5-5.5-31.2-22.6-31-41.8 0-4.3.8-10.7 1.7-14.2l1.8-6.4-3.7-8.9c-3.6-9.1-4.5-13.2-2.6-13.2.6 0 4.7 3.2 9.3 7.1 11.9 10.4 35.7 27.1 46.7 32.7 14.1 7.4 22 9.5 29.2 7.9 3.1-.6 17.1-7.8 17.6-8.9.2-.5.8-.8 1.3-.8 1.5 0 18.8-11.7 33.9-22.9 6.9-5.2 10.3-8 16.7-13.9 3.1-2.9 3.2-2.8 2.6 1z"/><path d="M269.9 251.9c-10.7 5.3-19.9 14.5-19.9 19.7 0 2.8 4.3 10.4 5.8 10.4.4 0 5-2.4 10.2-5.4l9.5-5.3 6.5 4.6c3.6 2.5 6.7 4.8 7 5.1 2.9 3.1 3.9 3.2 6.4.3 2.8-3.2 4.4-7 4-9.5-.8-5.5-9.6-13.9-20.1-19.2-2.9-1.4-5.4-2.6-5.5-2.6-.2.1-1.9.9-3.9 1.9zM289 437.5c-.6.8-1.7 4.7-2.4 8.7-1.6 9.4-.2 13.9 6.3 20.6 6.2 6.3 10.4 8.2 18.4 8.2 7.3 0 13.5-1.9 18.4-5.6 5.1-3.9 4.4-5.6-4.1-9.8-7-3.5-7.6-3.7-9.8-2.2-2.6 1.7-7.3 2.3-10.3 1.3-2.9-1-4.6-4.3-5.2-10.1-.5-5-.7-5.4-6.3-10-3-2.4-3.8-2.6-5-1.1zM400.1 439.9c-3.5 3.1-4.5 4.6-4.7 7.5-.1 2-.5 4.8-.8 6.1-1.2 4.7-10.7 7.2-15.3 4-2.4-1.7-3.8-1.3-10.6 3-6.3 4-6.2 5.3.9 9.8 8 5 17.5 6.6 23.9 4.1 2.4-.9 9.3-6.1 11.8-8.9 4.8-5.4 6.3-13.1 4.5-22-1.8-8.7-3.3-9.3-9.7-3.6z"/></svg>